<svg xmlns="http://www.w3.org/2000/svg" width="130.813" height="210.78" viewBox="0 0 130.813 210.78">
  <defs>
    <style>
      .cls-1 {
        fill: #cedfc0;
        fill-rule: evenodd;
      }
    </style>
  </defs>
  <path id="_" data-name="?" class="cls-1" d="M219.576,8577.74a16.4,16.4,0,0,1-5.515-12.87,19.946,19.946,0,0,1,5.209-13.17,63.856,63.856,0,0,1,12.868-11.34q7.655-5.205,15.166-11.34a51.2,51.2,0,0,0,12.715-15.93,46.282,46.282,0,0,0,5.209-22.06q0-21.75-17.158-35.08T201.5,8442.62q-41.67,0-67.1,29.72l24.817,27.88q15.927-18.99,37.685-18.99,11.951,0,17.924,4.9a15.534,15.534,0,0,1,5.975,12.56q0,6.75-7.047,13.48a83.664,83.664,0,0,1-15.32,11.64q-8.273,4.905-15.319,14.71a36.872,36.872,0,0,0-7.047,22.06q0,15.93,10.111,26.96Zm6.128,50.86a25.123,25.123,0,1,0-7.353,17.46A23.885,23.885,0,0,0,225.7,8628.6Z" transform="translate(-134.406 -8442.63)"/>
</svg>
