<svg xmlns="http://www.w3.org/2000/svg" width="130.813" height="210.78"><path data-name="?" d="M85.17 135.11a16.4 16.4 0 01-5.515-12.87 19.946 19.946 0 015.209-13.17 63.856 63.856 0 0112.868-11.34q7.655-5.205 15.166-11.34a51.2 51.2 0 0012.715-15.93 46.282 46.282 0 005.209-22.06q0-21.75-17.158-35.08T67.094-.01q-41.67 0-67.1 29.72l24.817 27.88Q40.738 38.6 62.496 38.6q11.951 0 17.924 4.9a15.534 15.534 0 015.975 12.56q0 6.75-7.047 13.48a83.664 83.664 0 01-15.32 11.64q-8.273 4.905-15.319 14.71a36.872 36.872 0 00-7.047 22.06q0 15.93 10.111 26.96zm6.128 50.86a25.123 25.123 0 10-7.353 17.46 23.885 23.885 0 007.349-17.46z" fill="#cedfc0" fill-rule="evenodd"/></svg>